<svg width="396" height="288" viewBox="0 0 396 288" fill="none" xmlns="http://www.w3.org/2000/svg">
<path d="M125.699 92.1165C182.943 100.584 249.257 74.9511 317.348 48.6309C370.492 28.0887 424.717 7.1281 476.558 1.63488C529.857 -4.01289 575.774 18.8888 626.146 44.0131C628.13 45.0025 630.121 45.9954 632.119 46.9901V301.123C598.922 300.558 563.906 300.421 527.034 300.801C480.807 301.276 437.507 302.432 397.06 304.108H125.699L125.699 92.1165Z" fill="#D1E3B5"/>
<path d="M-82.5 112.689L-50.5 298C483.037 301.562 413.5 298 413.5 298C411.749 250.441 418 149 418 149C348.848 155.638 180.51 74.483 138.922 53.7904C132.827 50.7582 125.92 49.9593 119.325 51.6425C75.4824 62.831 -94.3562 106.75 -82.5 112.689Z" fill="#E5F5D0"/>
</svg>
