<svg width="172" height="172" viewBox="0 0 172 172" fill="none" xmlns="http://www.w3.org/2000/svg">
<g clip-path="url(#clip0_4586_38428)">
<g clip-path="url(#clip1_4586_38428)">
<rect width="172" height="172" rx="7.2" fill="#E5F5D0"/>
<circle cx="75.6084" cy="72.025" r="29.025" fill="#D1E3B5"/>
<path d="M94.958 73.0938L120.094 116.631H69.8216L94.958 73.0938Z" fill="#B2D187"/>
<g opacity="0.6">
<mask id="path-4-inside-1_4586_38428" fill="white">
<path fill-rule="evenodd" clip-rule="evenodd" d="M73.6598 143.229C73.667 143.213 73.6824 143.201 73.7003 143.199L76.2894 142.907C76.3279 142.903 76.3473 142.859 76.3243 142.827L74.7767 140.731C74.7661 140.717 74.7639 140.698 74.7711 140.681L75.8121 138.294C75.8276 138.258 75.7988 138.219 75.7603 138.224L73.1725 138.516C73.1546 138.518 73.137 138.51 73.1263 138.496L71.5799 136.401C71.5568 136.37 71.5086 136.375 71.4931 136.411L70.4523 138.797C70.4451 138.814 70.4296 138.825 70.4117 138.827L67.8227 139.119C67.7841 139.124 67.7648 139.168 67.7878 139.199L69.3353 141.296C69.346 141.31 69.3481 141.329 69.3409 141.346L68.2999 143.733C68.2844 143.768 68.3132 143.807 68.3517 143.803L70.9395 143.511C70.9574 143.509 70.975 143.517 70.9857 143.531L72.5322 145.626C72.5552 145.657 72.6034 145.652 72.6189 145.616L73.6598 143.229Z"/>
</mask>
<path fill-rule="evenodd" clip-rule="evenodd" d="M73.6598 143.229C73.667 143.213 73.6824 143.201 73.7003 143.199L76.2894 142.907C76.3279 142.903 76.3473 142.859 76.3243 142.827L74.7767 140.731C74.7661 140.717 74.7639 140.698 74.7711 140.681L75.8121 138.294C75.8276 138.258 75.7988 138.219 75.7603 138.224L73.1725 138.516C73.1546 138.518 73.137 138.51 73.1263 138.496L71.5799 136.401C71.5568 136.37 71.5086 136.375 71.4931 136.411L70.4523 138.797C70.4451 138.814 70.4296 138.825 70.4117 138.827L67.8227 139.119C67.7841 139.124 67.7648 139.168 67.7878 139.199L69.3353 141.296C69.346 141.31 69.3481 141.329 69.3409 141.346L68.2999 143.733C68.2844 143.768 68.3132 143.807 68.3517 143.803L70.9395 143.511C70.9574 143.509 70.975 143.517 70.9857 143.531L72.5322 145.626C72.5552 145.657 72.6034 145.652 72.6189 145.616L73.6598 143.229Z" fill="#FFC117"/>
<path d="M72.5322 145.626L72.7443 145.469L72.5322 145.626ZM72.6189 145.616L72.8606 145.721L72.6189 145.616ZM70.9395 143.511L70.9691 143.773L70.9395 143.511ZM70.9857 143.531L71.1978 143.374L70.9857 143.531ZM68.3517 143.803L68.3222 143.541L68.3517 143.803ZM69.3353 141.296L69.5474 141.139L69.3353 141.296ZM67.8227 139.119L67.8522 139.381L67.8227 139.119ZM67.7878 139.199L67.9999 139.043L67.7878 139.199ZM70.4117 138.827L70.4413 139.089L70.4117 138.827ZM71.5799 136.401L71.792 136.244L71.5799 136.401ZM73.1725 138.516L73.2021 138.778L73.1725 138.516ZM73.1263 138.496L72.9142 138.652L73.1263 138.496ZM75.7603 138.224L75.7307 137.962L75.7603 138.224ZM74.7767 140.731L74.9889 140.575L74.7767 140.731ZM73.7003 143.199L73.6708 142.937L73.7003 143.199ZM73.6598 143.229L73.4181 143.124L73.6598 143.229ZM76.2894 142.907L76.3189 143.169L76.2894 142.907ZM76.3243 142.827L76.5364 142.671L76.3243 142.827ZM76.2598 142.645L73.6708 142.937L73.7299 143.461L76.3189 143.169L76.2598 142.645ZM74.5646 140.888L76.1122 142.984L76.5364 142.671L74.9889 140.575L74.5646 140.888ZM75.5705 138.189L74.5294 140.576L75.0128 140.786L76.0538 138.399L75.5705 138.189ZM73.2021 138.778L75.7899 138.486L75.7307 137.962L73.143 138.254L73.2021 138.778ZM71.3677 136.557L72.9142 138.652L73.3384 138.339L71.792 136.244L71.3677 136.557ZM70.6939 138.903L71.7348 136.516L71.2515 136.305L70.2106 138.692L70.6939 138.903ZM67.8522 139.381L70.4413 139.089L70.3822 138.565L67.7931 138.857L67.8522 139.381ZM69.5474 141.139L67.9999 139.043L67.5757 139.356L69.1232 141.452L69.5474 141.139ZM68.5416 143.838L69.5826 141.451L69.0993 141.24L68.0582 143.627L68.5416 143.838ZM70.91 143.249L68.3222 143.541L68.3813 144.065L70.9691 143.773L70.91 143.249ZM72.7443 145.469L71.1978 143.374L70.7736 143.688L72.3201 145.782L72.7443 145.469ZM73.4181 143.124L72.3773 145.511L72.8606 145.721L73.9014 143.335L73.4181 143.124ZM72.3201 145.782C72.4637 145.977 72.7639 145.943 72.8606 145.721L72.3773 145.511C72.4429 145.36 72.6468 145.337 72.7443 145.469L72.3201 145.782ZM70.9691 143.773C70.8934 143.781 70.8189 143.749 70.7736 143.688L71.1978 143.374C71.1312 143.284 71.0215 143.236 70.91 143.249L70.9691 143.773ZM68.0582 143.627C67.9616 143.849 68.1411 144.092 68.3813 144.065L68.3222 143.541C68.4853 143.522 68.6072 143.688 68.5416 143.838L68.0582 143.627ZM69.1232 141.452C69.0779 141.391 69.0688 141.31 69.0993 141.24L69.5826 141.451C69.6275 141.348 69.614 141.229 69.5474 141.139L69.1232 141.452ZM67.7931 138.857C67.5529 138.885 67.4321 139.161 67.5757 139.356L67.9999 139.043C68.0974 139.175 68.0154 139.363 67.8522 139.381L67.7931 138.857ZM70.2106 138.692C70.2411 138.622 70.3065 138.574 70.3822 138.565L70.4413 139.089C70.5528 139.077 70.6491 139.006 70.6939 138.903L70.2106 138.692ZM71.792 136.244C71.6484 136.05 71.3481 136.084 71.2515 136.305L71.7348 136.516C71.6692 136.667 71.4653 136.69 71.3677 136.557L71.792 136.244ZM73.143 138.254C73.2187 138.245 73.2932 138.278 73.3384 138.339L72.9142 138.652C72.9809 138.742 73.0906 138.79 73.2021 138.778L73.143 138.254ZM76.0538 138.399C76.1504 138.178 75.971 137.935 75.7307 137.962L75.7899 138.486C75.6267 138.504 75.5049 138.339 75.5705 138.189L76.0538 138.399ZM74.9889 140.575C75.0341 140.636 75.0432 140.717 75.0128 140.786L74.5294 140.576C74.4846 140.679 74.498 140.798 74.5646 140.888L74.9889 140.575ZM73.6708 142.937C73.5593 142.95 73.463 143.021 73.4181 143.124L73.9014 143.335C73.871 143.405 73.8056 143.453 73.7299 143.461L73.6708 142.937ZM76.3189 143.169C76.5591 143.142 76.6799 142.865 76.5364 142.671L76.1122 142.984C76.0146 142.852 76.0967 142.664 76.2598 142.645L76.3189 143.169Z" fill="#FFC117" mask="url(#path-4-inside-1_4586_38428)"/>
</g>
<mask id="path-6-inside-2_4586_38428" fill="white">
<path fill-rule="evenodd" clip-rule="evenodd" d="M62.9547 140.917C62.9574 140.91 62.9631 140.906 62.9697 140.906L63.9263 140.798C63.9405 140.796 63.9476 140.78 63.9391 140.768L63.3674 139.994C63.3634 139.988 63.3627 139.981 63.3653 139.975L63.7491 139.095C63.7548 139.082 63.7442 139.068 63.73 139.069L62.7759 139.177C62.7693 139.178 62.7628 139.175 62.7589 139.169L62.1877 138.396C62.1792 138.384 62.1614 138.386 62.1556 138.399L61.7712 139.281C61.7685 139.287 61.7628 139.291 61.7562 139.292L60.7997 139.4C60.7854 139.401 60.7783 139.418 60.7868 139.429L61.3585 140.204C61.3625 140.209 61.3633 140.216 61.3606 140.222L60.9768 141.102C60.9711 141.115 60.9817 141.13 60.9959 141.128L61.95 141.021C61.9566 141.02 61.9631 141.023 61.967 141.028L62.5383 141.802C62.5468 141.813 62.5645 141.811 62.5703 141.798L62.9547 140.917Z"/>
</mask>
<path fill-rule="evenodd" clip-rule="evenodd" d="M62.9547 140.917C62.9574 140.91 62.9631 140.906 62.9697 140.906L63.9263 140.798C63.9405 140.796 63.9476 140.78 63.9391 140.768L63.3674 139.994C63.3634 139.988 63.3627 139.981 63.3653 139.975L63.7491 139.095C63.7548 139.082 63.7442 139.068 63.73 139.069L62.7759 139.177C62.7693 139.178 62.7628 139.175 62.7589 139.169L62.1877 138.396C62.1792 138.384 62.1614 138.386 62.1556 138.399L61.7712 139.281C61.7685 139.287 61.7628 139.291 61.7562 139.292L60.7997 139.4C60.7854 139.401 60.7783 139.418 60.7868 139.429L61.3585 140.204C61.3625 140.209 61.3633 140.216 61.3606 140.222L60.9768 141.102C60.9711 141.115 60.9817 141.13 60.9959 141.128L61.95 141.021C61.9566 141.02 61.9631 141.023 61.967 141.028L62.5383 141.802C62.5468 141.813 62.5645 141.811 62.5703 141.798L62.9547 140.917Z" fill="#FFC117"/>
<path d="M61.95 141.021L61.9609 141.117L61.95 141.021ZM61.967 141.028L62.0453 140.97L61.967 141.028ZM60.9768 141.102L61.066 141.141L60.9768 141.102ZM60.9959 141.128L60.985 141.032L60.9959 141.128ZM61.3585 140.204L61.2802 140.262L61.3585 140.204ZM61.3606 140.222L61.2714 140.183L61.3606 140.222ZM60.7997 139.4L60.7887 139.303L60.7997 139.4ZM60.7868 139.429L60.7085 139.487L60.7868 139.429ZM61.7562 139.292L61.7671 139.389L61.7562 139.292ZM62.7759 139.177L62.765 139.08L62.7759 139.177ZM62.7589 139.169L62.8372 139.112L62.7589 139.169ZM63.3674 139.994L63.2891 140.051L63.3674 139.994ZM62.9697 140.906L62.9588 140.809L62.9697 140.906ZM63.9263 140.798L63.9372 140.894L63.9263 140.798ZM63.9391 140.768L64.0174 140.71L63.9391 140.768ZM63.9153 140.701L62.9588 140.809L62.9806 141.002L63.9372 140.894L63.9153 140.701ZM63.2891 140.051L63.8608 140.826L64.0174 140.71L63.4457 139.936L63.2891 140.051ZM63.6599 139.056L63.2761 139.936L63.4545 140.014L63.8383 139.134L63.6599 139.056ZM62.7869 139.274L63.7409 139.166L63.7191 138.972L62.765 139.08L62.7869 139.274ZM62.1094 138.453L62.6806 139.227L62.8372 139.112L62.266 138.338L62.1094 138.453ZM61.8604 139.32L62.2449 138.438L62.0664 138.36L61.682 139.242L61.8604 139.32ZM60.8106 139.497L61.7671 139.389L61.7453 139.195L60.7887 139.303L60.8106 139.497ZM61.4368 140.146L60.8651 139.372L60.7085 139.487L61.2802 140.262L61.4368 140.146ZM61.066 141.141L61.4498 140.261L61.2714 140.183L60.8876 141.063L61.066 141.141ZM61.9391 140.924L60.985 141.032L61.0069 141.225L61.9609 141.117L61.9391 140.924ZM62.6166 141.744L62.0453 140.97L61.8887 141.086L62.46 141.86L62.6166 141.744ZM62.8655 140.878L62.4811 141.759L62.6595 141.837L63.044 140.955L62.8655 140.878ZM62.46 141.86C62.513 141.931 62.6238 141.919 62.6595 141.837L62.4811 141.759C62.5053 141.704 62.5806 141.695 62.6166 141.744L62.46 141.86ZM61.9609 141.117C61.9329 141.12 61.9054 141.108 61.8887 141.086L62.0453 140.97C62.0207 140.937 61.9802 140.919 61.9391 140.924L61.9609 141.117ZM60.8876 141.063C60.8519 141.145 60.9182 141.235 61.0069 141.225L60.985 141.032C61.0453 141.025 61.0903 141.086 61.066 141.141L60.8876 141.063ZM61.2802 140.262C61.2635 140.239 61.2602 140.209 61.2714 140.183L61.4498 140.261C61.4664 140.223 61.4614 140.179 61.4368 140.146L61.2802 140.262ZM60.7887 139.303C60.7001 139.313 60.6555 139.415 60.7085 139.487L60.8651 139.372C60.9011 139.42 60.8708 139.49 60.8106 139.497L60.7887 139.303ZM61.682 139.242C61.6932 139.216 61.7174 139.198 61.7453 139.195L61.7671 139.389C61.8083 139.384 61.8438 139.358 61.8604 139.32L61.682 139.242ZM62.266 138.338C62.213 138.266 62.1021 138.279 62.0664 138.36L62.2449 138.438C62.2206 138.494 62.1454 138.502 62.1094 138.453L62.266 138.338ZM62.765 139.08C62.793 139.077 62.8205 139.089 62.8372 139.112L62.6806 139.227C62.7052 139.261 62.7457 139.278 62.7869 139.274L62.765 139.08ZM63.8383 139.134C63.874 139.052 63.8077 138.962 63.7191 138.972L63.7409 139.166C63.6807 139.173 63.6357 139.112 63.6599 139.056L63.8383 139.134ZM63.4457 139.936C63.4624 139.958 63.4658 139.988 63.4545 140.014L63.2761 139.936C63.2595 139.974 63.2645 140.018 63.2891 140.051L63.4457 139.936ZM62.9588 140.809C62.9176 140.813 62.8821 140.84 62.8655 140.878L63.044 140.955C63.0327 140.981 63.0086 140.999 62.9806 141.002L62.9588 140.809ZM63.9372 140.894C64.0259 140.884 64.0704 140.782 64.0174 140.71L63.8608 140.826C63.8248 140.777 63.8551 140.708 63.9153 140.701L63.9372 140.894Z" fill="#FFC117" mask="url(#path-6-inside-2_4586_38428)"/>
<mask id="path-8-inside-3_4586_38428" fill="white">
<path fill-rule="evenodd" clip-rule="evenodd" d="M56.6243 167.931C56.6456 167.911 56.6764 167.903 56.705 167.911L60.8607 169.077C60.9224 169.095 60.9798 169.039 60.964 168.977L59.8964 164.794C59.889 164.766 59.8976 164.735 59.9189 164.714L62.9981 161.707C63.044 161.662 63.0242 161.585 62.9624 161.567L58.8188 160.404C58.7901 160.396 58.7679 160.373 58.7606 160.345L57.696 156.174C57.6801 156.112 57.6029 156.09 57.557 156.135L54.4775 159.142C54.4562 159.163 54.4254 159.171 54.3968 159.163L50.2411 157.996C50.1794 157.979 50.122 158.035 50.1379 158.097L51.2054 162.279C51.2128 162.308 51.2042 162.339 51.1829 162.36L48.1037 165.366C48.0578 165.411 48.0777 165.489 48.1394 165.506L52.283 166.67C52.3117 166.678 52.3339 166.7 52.3413 166.729L53.4058 170.9C53.4217 170.962 53.4989 170.983 53.5448 170.939L56.6243 167.931Z"/>
</mask>
<path fill-rule="evenodd" clip-rule="evenodd" d="M56.6243 167.931C56.6456 167.911 56.6764 167.903 56.705 167.911L60.8607 169.077C60.9224 169.095 60.9798 169.039 60.964 168.977L59.8964 164.794C59.889 164.766 59.8976 164.735 59.9189 164.714L62.9981 161.707C63.044 161.662 63.0242 161.585 62.9624 161.567L58.8188 160.404C58.7901 160.396 58.7679 160.373 58.7606 160.345L57.696 156.174C57.6801 156.112 57.6029 156.09 57.557 156.135L54.4775 159.142C54.4562 159.163 54.4254 159.171 54.3968 159.163L50.2411 157.996C50.1794 157.979 50.122 158.035 50.1379 158.097L51.2054 162.279C51.2128 162.308 51.2042 162.339 51.1829 162.36L48.1037 165.366C48.0578 165.411 48.0777 165.489 48.1394 165.506L52.283 166.67C52.3117 166.678 52.3339 166.7 52.3413 166.729L53.4058 170.9C53.4217 170.962 53.4989 170.983 53.5448 170.939L56.6243 167.931Z" fill="#FFC117"/>
<path d="M53.4058 170.9L53.8284 170.792L53.4058 170.9ZM52.283 166.67L52.4009 166.25L52.283 166.67ZM52.3413 166.729L52.7638 166.621L52.3413 166.729ZM48.1037 165.366L48.4084 165.678L48.1037 165.366ZM48.1394 165.506L48.2573 165.086L48.1394 165.506ZM51.2054 162.279L50.7829 162.387L51.2054 162.279ZM51.1829 162.36L51.4876 162.672L51.1829 162.36ZM50.2411 157.996L50.359 157.576L50.2411 157.996ZM50.1379 158.097L50.5604 157.989L50.1379 158.097ZM54.4775 159.142L54.7822 159.454L54.4775 159.142ZM54.3968 159.163L54.5146 158.743L54.3968 159.163ZM57.696 156.174L58.1185 156.066L57.696 156.174ZM57.557 156.135L57.8617 156.447L57.557 156.135ZM58.8188 160.404L58.9366 159.984L58.8188 160.404ZM58.7606 160.345L59.1831 160.237L58.7606 160.345ZM62.9981 161.707L62.6934 161.395L62.9981 161.707ZM62.9624 161.567L62.8445 161.987L62.9624 161.567ZM59.8964 164.794L59.4739 164.902L59.8964 164.794ZM59.9189 164.714L59.6143 164.402L59.9189 164.714ZM56.705 167.911L56.8229 167.491L56.705 167.911ZM56.6243 167.931L56.929 168.243L56.6243 167.931ZM60.8607 169.077L60.7428 169.497L60.8607 169.077ZM60.964 168.977L60.5414 169.084L60.964 168.977ZM60.9785 168.658L56.8229 167.491L56.5872 168.331L60.7428 169.497L60.9785 168.658ZM59.4739 164.902L60.5414 169.084L61.3865 168.869L60.319 164.687L59.4739 164.902ZM62.6934 161.395L59.6143 164.402L60.2236 165.026L63.3028 162.019L62.6934 161.395ZM58.7009 160.824L62.8445 161.987L63.0802 161.148L58.9366 159.984L58.7009 160.824ZM57.2734 156.282L58.338 160.452L59.1831 160.237L58.1185 156.066L57.2734 156.282ZM54.7822 159.454L57.8617 156.447L57.2523 155.823L54.1728 158.83L54.7822 159.454ZM50.1233 158.416L54.2789 159.583L54.5146 158.743L50.359 157.576L50.1233 158.416ZM51.628 162.171L50.5604 157.989L49.7153 158.205L50.7829 162.387L51.628 162.171ZM48.4084 165.678L51.4876 162.672L50.8782 162.048L47.7991 165.054L48.4084 165.678ZM52.4009 166.25L48.2573 165.086L48.0216 165.926L52.1652 167.089L52.4009 166.25ZM53.8284 170.792L52.7638 166.621L51.9187 166.837L52.9833 171.008L53.8284 170.792ZM56.3196 167.619L53.2401 170.627L53.8495 171.251L56.929 168.243L56.3196 167.619ZM52.9833 171.008C53.0822 171.395 53.5634 171.53 53.8495 171.251L53.2401 170.627C53.4344 170.437 53.7612 170.529 53.8284 170.792L52.9833 171.008ZM52.1652 167.089C52.0438 167.055 51.9499 166.959 51.9187 166.837L52.7638 166.621C52.7179 166.441 52.5796 166.3 52.4009 166.25L52.1652 167.089ZM47.7991 165.054C47.513 165.334 47.6366 165.818 48.0216 165.926L48.2573 165.086C48.5187 165.16 48.6027 165.489 48.4084 165.678L47.7991 165.054ZM50.7829 162.387C50.7517 162.265 50.788 162.136 50.8782 162.048L51.4876 162.672C51.6203 162.542 51.6739 162.351 51.628 162.171L50.7829 162.387ZM50.359 157.576C49.974 157.468 49.6164 157.818 49.7153 158.205L50.5604 157.989C50.6276 158.252 50.3847 158.49 50.1233 158.416L50.359 157.576ZM54.1728 158.83C54.263 158.742 54.3933 158.709 54.5146 158.743L54.2789 159.583C54.4576 159.633 54.6494 159.584 54.7822 159.454L54.1728 158.83ZM58.1185 156.066C58.0196 155.679 57.5384 155.544 57.2523 155.823L57.8617 156.447C57.6674 156.637 57.3406 156.545 57.2734 156.282L58.1185 156.066ZM58.9366 159.984C59.058 160.018 59.1519 160.115 59.1831 160.237L58.338 160.452C58.3839 160.632 58.5222 160.774 58.7009 160.824L58.9366 159.984ZM63.3028 162.019C63.5889 161.74 63.4652 161.256 63.0802 161.148L62.8445 161.987C62.5831 161.914 62.4991 161.585 62.6934 161.395L63.3028 162.019ZM60.319 164.687C60.3501 164.809 60.3138 164.938 60.2236 165.026L59.6143 164.402C59.4815 164.532 59.428 164.722 59.4739 164.902L60.319 164.687ZM56.8229 167.491C56.6442 167.441 56.4524 167.49 56.3196 167.619L56.929 168.243C56.8388 168.332 56.7085 168.365 56.5872 168.331L56.8229 167.491ZM60.7428 169.497C61.1278 169.605 61.4854 169.256 61.3865 168.869L60.5414 169.084C60.4742 168.821 60.7171 168.584 60.9785 168.658L60.7428 169.497Z" fill="#FFC117" mask="url(#path-8-inside-3_4586_38428)"/>
</g>
</g>
<defs>
<clipPath id="clip0_4586_38428">
<rect width="172" height="172" fill="white"/>
</clipPath>
<clipPath id="clip1_4586_38428">
<rect width="172" height="172" fill="white"/>
</clipPath>
</defs>
</svg>
