<svg width="396" height="516" viewBox="0 0 396 516" fill="none" xmlns="http://www.w3.org/2000/svg">
<path d="M135.322 254.903C135.322 238.388 148.71 225 165.225 225H428.341C461.842 225 489 252.158 489 285.659C489 319.16 461.842 346.317 428.341 346.317H168.912H116.986C79.3921 346.317 74.7501 291.962 111.529 284.175C125.351 281.249 135.322 269.031 135.322 254.903Z" fill="white" fill-opacity="0.7"/>
<path opacity="0.07" d="M293.137 150.775C298.938 135.84 313.316 126 329.339 126H419V164H302.188C295.36 164 290.665 157.139 293.137 150.775Z" fill="#41B6E6"/>
<path opacity="0.05" d="M215.186 16.9265C219.149 6.72253 228.972 0 239.919 0H319.535C329.733 0 338 8.26697 338 18.4648C338 29.2538 329.254 38 318.465 38H218.192C212.806 38 209.102 32.5882 211.052 27.5678L215.186 16.9265Z" fill="#41B6E6"/>
<path opacity="0.1" d="M203.233 495.805C193.869 484.526 179.969 478 165.309 478H-60V516H193.752C204.19 516 209.901 503.836 203.233 495.805Z" fill="#41B6E6"/>
<path d="M-191 66H91.5C110.002 66 125 80.9985 125 99.5C125 118.002 110.002 133 91.5 133H-191V66Z" fill="white" fill-opacity="0.7"/>
</svg>
