<svg width="28" height="28" viewBox="0 0 28 28" fill="none" xmlns="http://www.w3.org/2000/svg">
<g opacity="0.9">
<path d="M21.1719 8.42188L15.5469 14.0469L21.125 19.625C21.5938 20.0469 21.5938 20.75 21.125 21.1719C20.7031 21.6406 20 21.6406 19.5781 21.1719L13.9531 15.5938L8.375 21.1719C7.95312 21.6406 7.25 21.6406 6.82812 21.1719C6.35938 20.75 6.35938 20.0469 6.82812 19.5781L12.4062 14L6.82812 8.42188C6.35938 8 6.35938 7.29688 6.82812 6.82812C7.25 6.40625 7.95312 6.40625 8.42188 6.82812L14 12.4531L19.5781 6.875C20 6.40625 20.7031 6.40625 21.1719 6.875C21.5938 7.29688 21.5938 8 21.1719 8.42188Z" fill="#005477"/>
</g>
</svg>
